<mxfile host="app.diagrams.net" modified="2023-04-25T14:10:42.984Z" agent="Mozilla/5.0 (Windows NT 10.0; Win64; x64) AppleWebKit/537.36 (KHTML, like Gecko) Chrome/112.0.0.0 Safari/537.36" etag="-EWy33FfZO1hsCdSxmZg" version="21.2.1" type="github">
  <diagram name="Page-1" id="p7mFS7OLXUk5iB58iDgj">
    <mxGraphModel dx="1050" dy="549" grid="1" gridSize="10" guides="1" tooltips="1" connect="1" arrows="1" fold="1" page="1" pageScale="1" pageWidth="850" pageHeight="1100" math="1" shadow="0">
      <root>
        <mxCell id="0" />
        <mxCell id="1" parent="0" />
        <mxCell id="zZHFqDSYlUtSh1_NurqU-1" value="$$ S_1 $$" style="ellipse;whiteSpace=wrap;html=1;aspect=fixed;movable=1;resizable=1;rotatable=1;deletable=1;editable=1;locked=0;connectable=1;fontSize=20;" vertex="1" parent="1">
          <mxGeometry x="162" y="320" width="80" height="80" as="geometry" />
        </mxCell>
        <mxCell id="zZHFqDSYlUtSh1_NurqU-2" value="$$ S_2 $$" style="ellipse;whiteSpace=wrap;html=1;aspect=fixed;fontSize=22;" vertex="1" parent="1">
          <mxGeometry x="382" y="320" width="80" height="80" as="geometry" />
        </mxCell>
        <mxCell id="zZHFqDSYlUtSh1_NurqU-3" value="&lt;font style=&quot;font-size: 22px;&quot;&gt;$$ S_3 $$&lt;/font&gt;" style="ellipse;whiteSpace=wrap;html=1;aspect=fixed;" vertex="1" parent="1">
          <mxGeometry x="602" y="320" width="80" height="80" as="geometry" />
        </mxCell>
        <mxCell id="zZHFqDSYlUtSh1_NurqU-4" value="" style="endArrow=classic;html=1;rounded=0;" edge="1" parent="1">
          <mxGeometry width="50" height="50" relative="1" as="geometry">
            <mxPoint x="252" y="360" as="sourcePoint" />
            <mxPoint x="372" y="359.5" as="targetPoint" />
          </mxGeometry>
        </mxCell>
        <mxCell id="zZHFqDSYlUtSh1_NurqU-5" value="" style="endArrow=classic;html=1;rounded=0;" edge="1" parent="1">
          <mxGeometry width="50" height="50" relative="1" as="geometry">
            <mxPoint x="472" y="360" as="sourcePoint" />
            <mxPoint x="592" y="359.5" as="targetPoint" />
          </mxGeometry>
        </mxCell>
        <mxCell id="zZHFqDSYlUtSh1_NurqU-7" value="" style="ellipse;whiteSpace=wrap;html=1;" vertex="1" parent="1">
          <mxGeometry x="158" y="240" width="88" height="50" as="geometry" />
        </mxCell>
        <mxCell id="zZHFqDSYlUtSh1_NurqU-8" value="" style="ellipse;whiteSpace=wrap;html=1;" vertex="1" parent="1">
          <mxGeometry x="158" y="170" width="88" height="50" as="geometry" />
        </mxCell>
        <mxCell id="zZHFqDSYlUtSh1_NurqU-9" value="" style="ellipse;whiteSpace=wrap;html=1;" vertex="1" parent="1">
          <mxGeometry x="594" y="240" width="88" height="50" as="geometry" />
        </mxCell>
        <mxCell id="zZHFqDSYlUtSh1_NurqU-10" value="" style="ellipse;whiteSpace=wrap;html=1;" vertex="1" parent="1">
          <mxGeometry x="378" y="240" width="88" height="50" as="geometry" />
        </mxCell>
        <mxCell id="zZHFqDSYlUtSh1_NurqU-11" value="" style="endArrow=classic;html=1;rounded=0;exitX=1;exitY=0.5;exitDx=0;exitDy=0;entryX=0;entryY=0.5;entryDx=0;entryDy=0;" edge="1" parent="1" source="zZHFqDSYlUtSh1_NurqU-8" target="zZHFqDSYlUtSh1_NurqU-10">
          <mxGeometry width="50" height="50" relative="1" as="geometry">
            <mxPoint x="400" y="310" as="sourcePoint" />
            <mxPoint x="450" y="260" as="targetPoint" />
          </mxGeometry>
        </mxCell>
        <mxCell id="zZHFqDSYlUtSh1_NurqU-12" value="" style="endArrow=classic;html=1;rounded=0;" edge="1" parent="1">
          <mxGeometry width="50" height="50" relative="1" as="geometry">
            <mxPoint x="400" y="310" as="sourcePoint" />
            <mxPoint x="450" y="260" as="targetPoint" />
          </mxGeometry>
        </mxCell>
      </root>
    </mxGraphModel>
  </diagram>
</mxfile>
